<mxfile host="Electron" modified="2024-04-26T16:52:34.037Z" agent="Mozilla/5.0 (Windows NT 10.0; Win64; x64) AppleWebKit/537.36 (KHTML, like Gecko) draw.io/24.2.5 Chrome/120.0.6099.109 Electron/28.1.0 Safari/537.36" etag="CWCURIuDrwg1QpM6YAKI" version="24.2.5" type="device">
  <diagram id="C5RBs43oDa-KdzZeNtuy" name="Page-1">
    <mxGraphModel dx="600" dy="359" grid="1" gridSize="10" guides="1" tooltips="1" connect="1" arrows="1" fold="1" page="1" pageScale="1" pageWidth="827" pageHeight="1169" math="0" shadow="0">
      <root>
        <mxCell id="WIyWlLk6GJQsqaUBKTNV-0" />
        <mxCell id="WIyWlLk6GJQsqaUBKTNV-1" parent="WIyWlLk6GJQsqaUBKTNV-0" />
        <mxCell id="IUOXqDqNGWJRMbw2lu2S-0" value="&lt;p style=&quot;margin: 4px 0px 0px; text-align: center; font-size: 13px;&quot;&gt;&lt;b&gt;&lt;font style=&quot;font-size: 13px;&quot;&gt;Bolygó&lt;/font&gt;&lt;/b&gt;&lt;/p&gt;&lt;hr size=&quot;1&quot; style=&quot;border-style: solid; font-size: 13px;&quot;&gt;&amp;nbsp;- napok : int&amp;nbsp;&lt;div&gt;&lt;div style=&quot;height:2px;&quot;&gt;&lt;/div&gt;&lt;hr size=&quot;1&quot; style=&quot;border-style:solid;&quot;&gt;&lt;div style=&quot;height:2px;&quot;&gt;&amp;nbsp;+ hatás()&lt;/div&gt;&lt;/div&gt;&lt;div style=&quot;height:2px;&quot;&gt;&amp;nbsp;&lt;/div&gt;&lt;div style=&quot;height:2px;&quot;&gt;&lt;br&gt;&lt;/div&gt;&lt;div style=&quot;height:2px;&quot;&gt;&lt;br&gt;&lt;/div&gt;&lt;div style=&quot;height:2px;&quot;&gt;&lt;br&gt;&lt;/div&gt;&lt;div style=&quot;height:2px;&quot;&gt;&lt;br&gt;&lt;/div&gt;&lt;div style=&quot;height:2px;&quot;&gt;&lt;br&gt;&lt;/div&gt;&lt;div style=&quot;height:2px;&quot;&gt;&amp;nbsp;+ kölcsönhatás()&lt;/div&gt;&lt;div style=&quot;height:2px;&quot;&gt;&lt;br&gt;&lt;/div&gt;&lt;div style=&quot;height:2px;&quot;&gt;&lt;br&gt;&lt;/div&gt;&lt;div style=&quot;height:2px;&quot;&gt;&lt;br&gt;&lt;/div&gt;&lt;div style=&quot;height:2px;&quot;&gt;&lt;br&gt;&lt;/div&gt;&lt;div style=&quot;height:2px;&quot;&gt;&lt;br&gt;&lt;/div&gt;&lt;div style=&quot;height:2px;&quot;&gt;&lt;br&gt;&lt;/div&gt;&lt;div style=&quot;height:2px;&quot;&gt;&amp;nbsp;&lt;/div&gt;&lt;div style=&quot;height:2px;&quot;&gt;&amp;nbsp;+ maiSugárzás() : Sugárzás&lt;br&gt;&lt;/div&gt;&lt;div style=&quot;height:2px;&quot;&gt;&lt;br&gt;&lt;/div&gt;&lt;div style=&quot;height:2px;&quot;&gt;&lt;br&gt;&lt;/div&gt;&lt;div style=&quot;height:2px;&quot;&gt;&lt;br&gt;&lt;/div&gt;&lt;div style=&quot;height:2px;&quot;&gt;&lt;br&gt;&lt;/div&gt;&lt;div style=&quot;height:2px;&quot;&gt;&lt;br&gt;&lt;/div&gt;&lt;div style=&quot;height:2px;&quot;&gt;&lt;br&gt;&lt;/div&gt;&lt;div style=&quot;height:2px;&quot;&gt;&amp;nbsp;+ legéletrevalóbb() : string&lt;/div&gt;&lt;div style=&quot;height:2px;&quot;&gt;&lt;span style=&quot;background-color: initial;&quot;&gt;&lt;br&gt;&lt;/span&gt;&lt;/div&gt;&lt;div style=&quot;height:2px;&quot;&gt;&lt;span style=&quot;background-color: initial;&quot;&gt;&lt;br&gt;&lt;/span&gt;&lt;/div&gt;&lt;div style=&quot;height:2px;&quot;&gt;&lt;span style=&quot;background-color: initial;&quot;&gt;&lt;br&gt;&lt;/span&gt;&lt;/div&gt;&lt;div style=&quot;height:2px;&quot;&gt;&lt;span style=&quot;background-color: initial;&quot;&gt;&lt;br&gt;&lt;/span&gt;&lt;/div&gt;&lt;div style=&quot;height:2px;&quot;&gt;&lt;span style=&quot;background-color: initial;&quot;&gt;&amp;nbsp;&lt;/span&gt;&lt;/div&gt;&lt;div style=&quot;height:2px;&quot;&gt;&lt;span style=&quot;background-color: initial;&quot;&gt;&amp;nbsp;&lt;/span&gt;&lt;/div&gt;&lt;div style=&quot;height:2px;&quot;&gt;&lt;br&gt;&lt;/div&gt;" style="verticalAlign=top;align=left;overflow=fill;html=1;whiteSpace=wrap;fillColor=#bfa8ff;strokeColor=#36393d;strokeWidth=3;" parent="WIyWlLk6GJQsqaUBKTNV-1" vertex="1">
          <mxGeometry x="300" y="320" width="170" height="130" as="geometry" />
        </mxCell>
        <mxCell id="IUOXqDqNGWJRMbw2lu2S-2" value="&lt;p style=&quot;margin:0px;margin-top:4px;text-align:center;&quot;&gt;&lt;b&gt;Sugárzás&lt;/b&gt;&lt;/p&gt;&lt;hr size=&quot;1&quot; style=&quot;border-style:solid;&quot;&gt;&amp;nbsp; -&lt;font style=&quot;font-size: 12px;&quot;&gt;&amp;nbsp;alfa_igény : int&lt;/font&gt;&lt;div&gt;&lt;font style=&quot;font-size: 12px;&quot;&gt;&amp;nbsp; - delta_igény : int&amp;nbsp;&lt;br&gt;&lt;/font&gt;&lt;div style=&quot;height:2px;&quot;&gt;&lt;font style=&quot;font-size: 12px;&quot;&gt;&amp;nbsp;&lt;/font&gt;&lt;/div&gt;&lt;hr size=&quot;1&quot; style=&quot;border-style:solid;&quot;&gt;&lt;div style=&quot;height:2px;&quot;&gt;&lt;font style=&quot;font-size: 12px;&quot;&gt;&amp;nbsp; + Sugárzás(a,d)&lt;/font&gt;&lt;/div&gt;&lt;/div&gt;&lt;div style=&quot;height:2px;&quot;&gt;&lt;font style=&quot;font-size: 12px;&quot;&gt;&amp;nbsp;&lt;/font&gt;&lt;/div&gt;&lt;div style=&quot;height:2px;&quot;&gt;&lt;br&gt;&lt;/div&gt;&lt;div style=&quot;height:2px;&quot;&gt;&lt;font style=&quot;font-size: 12px;&quot;&gt;&lt;br&gt;&lt;/font&gt;&lt;/div&gt;&lt;div style=&quot;height:2px;&quot;&gt;&lt;font style=&quot;font-size: 12px;&quot;&gt;&amp;nbsp;&lt;/font&gt;&lt;/div&gt;&lt;div style=&quot;height:2px;&quot;&gt;&lt;font style=&quot;font-size: 12px;&quot;&gt;&lt;br&gt;&lt;/font&gt;&lt;/div&gt;&lt;div style=&quot;height:2px;&quot;&gt;&lt;font style=&quot;font-size: 12px;&quot;&gt;&lt;br&gt;&lt;/font&gt;&lt;/div&gt;&lt;div style=&quot;height:2px;&quot;&gt;&lt;font style=&quot;font-size: 12px;&quot;&gt;&amp;nbsp; &amp;nbsp;&lt;/font&gt;&lt;/div&gt;&lt;div style=&quot;height:2px;&quot;&gt;&lt;font style=&quot;font-size: 12px;&quot;&gt;&amp;nbsp; + IgényekMódosító(növény : Növény)&lt;/font&gt;&lt;/div&gt;&lt;div style=&quot;height:2px;&quot;&gt;&lt;font style=&quot;font-size: 12px;&quot;&gt;&lt;br&gt;&lt;/font&gt;&lt;/div&gt;&lt;div style=&quot;height:2px;&quot;&gt;&lt;font style=&quot;font-size: 12px;&quot;&gt;&lt;br&gt;&lt;/font&gt;&lt;/div&gt;&lt;div style=&quot;height:2px;&quot;&gt;&lt;font style=&quot;font-size: 12px;&quot;&gt;&lt;br&gt;&lt;/font&gt;&lt;/div&gt;&lt;div style=&quot;height:2px;&quot;&gt;&lt;font style=&quot;font-size: 12px;&quot;&gt;&lt;br&gt;&lt;/font&gt;&lt;/div&gt;&lt;div style=&quot;height:2px;&quot;&gt;&lt;font style=&quot;font-size: 12px;&quot;&gt;&lt;br&gt;&lt;/font&gt;&lt;/div&gt;&lt;div style=&quot;height:2px;&quot;&gt;&lt;font style=&quot;font-size: 12px;&quot;&gt;&lt;br&gt;&lt;/font&gt;&lt;/div&gt;&lt;div style=&quot;height:2px;&quot;&gt;&lt;font style=&quot;font-size: 12px;&quot;&gt;&amp;nbsp; + getAlfaIgény() : int&amp;nbsp;&lt;/font&gt;&lt;/div&gt;&lt;div style=&quot;height:2px;&quot;&gt;&lt;font style=&quot;font-size: 12px;&quot;&gt;&lt;br&gt;&lt;/font&gt;&lt;/div&gt;&lt;div style=&quot;height:2px;&quot;&gt;&lt;font style=&quot;font-size: 12px;&quot;&gt;&lt;br&gt;&lt;/font&gt;&lt;/div&gt;&lt;div style=&quot;height:2px;&quot;&gt;&lt;font style=&quot;font-size: 12px;&quot;&gt;&lt;br&gt;&lt;/font&gt;&lt;/div&gt;&lt;div style=&quot;height:2px;&quot;&gt;&lt;font style=&quot;font-size: 12px;&quot;&gt;&lt;br&gt;&lt;/font&gt;&lt;/div&gt;&lt;div style=&quot;height:2px;&quot;&gt;&lt;font style=&quot;font-size: 12px;&quot;&gt;&lt;br&gt;&lt;/font&gt;&lt;/div&gt;&lt;div style=&quot;height:2px;&quot;&gt;&lt;font style=&quot;font-size: 12px;&quot;&gt;&lt;br&gt;&lt;/font&gt;&lt;/div&gt;&lt;div style=&quot;height:2px;&quot;&gt;&lt;font style=&quot;font-size: 12px;&quot;&gt;&amp;nbsp; + getDeltaIgény() : int&amp;nbsp;&amp;nbsp;&lt;/font&gt;&lt;/div&gt;" style="verticalAlign=top;align=left;overflow=fill;html=1;whiteSpace=wrap;fillColor=#ffff88;strokeColor=#36393d;strokeWidth=3;" parent="WIyWlLk6GJQsqaUBKTNV-1" vertex="1">
          <mxGeometry x="500" y="525" width="270" height="135" as="geometry" />
        </mxCell>
        <mxCell id="IUOXqDqNGWJRMbw2lu2S-3" value="&lt;p style=&quot;margin:0px;margin-top:4px;text-align:center;&quot;&gt;&lt;b&gt;Növény&lt;/b&gt;&lt;br&gt;&lt;/p&gt;&lt;hr size=&quot;1&quot; style=&quot;border-style:solid;&quot;&gt;&lt;font style=&quot;font-size: 12px;&quot;&gt;&amp;nbsp;- név : string&lt;/font&gt;&lt;div style=&quot;&quot;&gt;&lt;font style=&quot;font-size: 12px;&quot;&gt;&lt;font style=&quot;font-size: 12px;&quot;&gt;&amp;nbsp;# tápMennyi : int&lt;/font&gt;&lt;br&gt;&lt;/font&gt;&lt;div style=&quot;height: 2px;&quot;&gt;&lt;font style=&quot;font-size: 12px;&quot;&gt;&lt;br&gt;&lt;/font&gt;&lt;/div&gt;&lt;hr size=&quot;1&quot; style=&quot;border-style: solid;&quot;&gt;&lt;font style=&quot;font-size: 12px;&quot;&gt;&amp;nbsp;+ Növény(s:string, n:int)&lt;/font&gt;&lt;/div&gt;&lt;div style=&quot;&quot;&gt;&lt;font style=&quot;font-size: 12px;&quot;&gt;&amp;nbsp;+ Él() : bool {virtual}&lt;/font&gt;&lt;/div&gt;&lt;div style=&quot;&quot;&gt;&lt;font style=&quot;font-size: 12px;&quot;&gt;&amp;nbsp;+ TápMennyiMódosító() {virtual}&lt;/font&gt;&lt;/div&gt;&lt;div style=&quot;&quot;&gt;&amp;nbsp;+ getNév() : string&amp;nbsp;&lt;/div&gt;&lt;div style=&quot;&quot;&gt;&amp;nbsp;+ getTápMennyi() : int&lt;br&gt;&lt;div style=&quot;font-size: 11px; height: 2px;&quot;&gt;&lt;/div&gt;&lt;/div&gt;" style="verticalAlign=top;align=left;overflow=fill;html=1;whiteSpace=wrap;fillColor=#d2ff70;strokeColor=#36393d;strokeWidth=3;perimeterSpacing=0;" parent="WIyWlLk6GJQsqaUBKTNV-1" vertex="1">
          <mxGeometry x="190" y="550" width="180" height="160" as="geometry" />
        </mxCell>
        <mxCell id="IUOXqDqNGWJRMbw2lu2S-4" value="" style="endArrow=diamondThin;endFill=1;endSize=24;html=1;rounded=0;entryX=0.5;entryY=1;entryDx=0;entryDy=0;exitX=0.277;exitY=0.981;exitDx=0;exitDy=0;exitPerimeter=0;strokeWidth=2;" parent="WIyWlLk6GJQsqaUBKTNV-1" source="IUOXqDqNGWJRMbw2lu2S-10" target="IUOXqDqNGWJRMbw2lu2S-0" edge="1">
          <mxGeometry width="160" relative="1" as="geometry">
            <mxPoint x="260" y="550" as="sourcePoint" />
            <mxPoint x="310" y="610" as="targetPoint" />
            <Array as="points">
              <mxPoint x="260" y="500" />
              <mxPoint x="320" y="500" />
              <mxPoint x="385" y="500" />
            </Array>
          </mxGeometry>
        </mxCell>
        <mxCell id="IUOXqDqNGWJRMbw2lu2S-8" value="" style="endArrow=diamondThin;endFill=1;endSize=24;html=1;rounded=0;entryX=0.5;entryY=1;entryDx=0;entryDy=0;exitX=0.5;exitY=0;exitDx=0;exitDy=0;strokeWidth=2;" parent="WIyWlLk6GJQsqaUBKTNV-1" source="IUOXqDqNGWJRMbw2lu2S-2" target="IUOXqDqNGWJRMbw2lu2S-0" edge="1">
          <mxGeometry width="160" relative="1" as="geometry">
            <mxPoint x="380" y="580" as="sourcePoint" />
            <mxPoint x="310" y="610" as="targetPoint" />
            <Array as="points">
              <mxPoint x="635" y="500" />
              <mxPoint x="490" y="500" />
              <mxPoint x="385" y="500" />
            </Array>
          </mxGeometry>
        </mxCell>
        <mxCell id="IUOXqDqNGWJRMbw2lu2S-9" value="&lt;b&gt;1&amp;nbsp; &amp;nbsp; &amp;nbsp;- sugárzás&lt;/b&gt;" style="text;html=1;align=center;verticalAlign=middle;whiteSpace=wrap;rounded=0;" parent="WIyWlLk6GJQsqaUBKTNV-1" vertex="1">
          <mxGeometry x="600" y="500" width="110" height="30" as="geometry" />
        </mxCell>
        <mxCell id="IUOXqDqNGWJRMbw2lu2S-10" value="&lt;b&gt;*&amp;nbsp; &amp;nbsp; &amp;nbsp;- növények&lt;/b&gt;" style="text;html=1;align=center;verticalAlign=middle;whiteSpace=wrap;rounded=0;" parent="WIyWlLk6GJQsqaUBKTNV-1" vertex="1">
          <mxGeometry x="230" y="520" width="110" height="30" as="geometry" />
        </mxCell>
        <mxCell id="IUOXqDqNGWJRMbw2lu2S-13" value="" style="endArrow=block;endFill=1;html=1;edgeStyle=orthogonalEdgeStyle;align=left;verticalAlign=top;rounded=0;strokeWidth=2;exitX=1.002;exitY=0.09;exitDx=0;exitDy=0;exitPerimeter=0;" parent="WIyWlLk6GJQsqaUBKTNV-1" source="IUOXqDqNGWJRMbw2lu2S-18" edge="1">
          <mxGeometry x="-1" relative="1" as="geometry">
            <mxPoint x="220" y="800" as="sourcePoint" />
            <mxPoint x="260" y="710" as="targetPoint" />
            <Array as="points">
              <mxPoint x="260" y="771" />
            </Array>
            <mxPoint as="offset" />
          </mxGeometry>
        </mxCell>
        <mxCell id="IUOXqDqNGWJRMbw2lu2S-16" value="&lt;p style=&quot;text-align: center; margin: 4px 0px 0px;&quot;&gt;&lt;span style=&quot;background-color: initial; text-align: left;&quot;&gt;&lt;b&gt;Puffancs&lt;/b&gt;&lt;/span&gt;&lt;br&gt;&lt;/p&gt;&lt;hr size=&quot;1&quot; style=&quot;border-style:solid;&quot;&gt;&lt;div style=&quot;height:2px;&quot;&gt;&lt;/div&gt;&lt;hr size=&quot;1&quot; style=&quot;border-style:solid;&quot;&gt;&lt;div style=&quot;height: 2px;&quot;&gt;&lt;div style=&quot;height: 2px;&quot;&gt;&amp;nbsp;+ Él() : bool {override}&lt;/div&gt;&lt;div style=&quot;height: 2px;&quot;&gt;&amp;nbsp;&lt;/div&gt;&lt;div style=&quot;height: 2px;&quot;&gt;&amp;nbsp;&lt;/div&gt;&lt;div style=&quot;height: 2px;&quot;&gt;&lt;br&gt;&lt;/div&gt;&lt;div style=&quot;height: 2px;&quot;&gt;&lt;br&gt;&lt;/div&gt;&lt;div style=&quot;height: 2px;&quot;&gt;&amp;nbsp;&lt;/div&gt;&lt;div style=&quot;height: 2px;&quot;&gt;&lt;br&gt;&lt;/div&gt;&lt;div style=&quot;height: 2px;&quot;&gt;&lt;div style=&quot;height: 2px;&quot;&gt;&amp;nbsp;+ TápMennyMódosító(sug : Sugárzás) {override}&lt;/div&gt;&lt;div&gt;&lt;br&gt;&lt;/div&gt;&lt;/div&gt;&lt;div style=&quot;height: 2px;&quot;&gt;&lt;br&gt;&lt;/div&gt;&lt;div style=&quot;height: 2px;&quot;&gt;&lt;br&gt;&lt;/div&gt;&lt;div style=&quot;height: 2px;&quot;&gt;&lt;br&gt;&lt;/div&gt;&lt;div style=&quot;height: 2px;&quot;&gt;&lt;br&gt;&lt;/div&gt;&lt;div style=&quot;height: 2px;&quot;&gt;&lt;br&gt;&lt;/div&gt;&lt;div style=&quot;height: 2px;&quot;&gt;&lt;br&gt;&lt;/div&gt;&lt;/div&gt;" style="verticalAlign=top;align=left;overflow=fill;html=1;whiteSpace=wrap;fillColor=#d5e8d4;strokeColor=#82b366;gradientColor=#97d077;" parent="WIyWlLk6GJQsqaUBKTNV-1" vertex="1">
          <mxGeometry x="290" y="970" width="270" height="80" as="geometry" />
        </mxCell>
        <mxCell id="IUOXqDqNGWJRMbw2lu2S-85" style="edgeStyle=orthogonalEdgeStyle;rounded=0;orthogonalLoop=1;jettySize=auto;html=1;endArrow=none;endFill=0;strokeWidth=2;" parent="WIyWlLk6GJQsqaUBKTNV-1" source="IUOXqDqNGWJRMbw2lu2S-18" edge="1">
          <mxGeometry relative="1" as="geometry">
            <mxPoint x="260" y="740" as="targetPoint" />
          </mxGeometry>
        </mxCell>
        <mxCell id="IUOXqDqNGWJRMbw2lu2S-18" value="&lt;p style=&quot;margin:0px;margin-top:4px;text-align:center;&quot;&gt;&lt;b&gt;Parabokor&lt;/b&gt;&lt;/p&gt;&lt;hr size=&quot;1&quot; style=&quot;border-style:solid;&quot;&gt;&lt;div style=&quot;height:2px;&quot;&gt;&lt;/div&gt;&lt;hr size=&quot;1&quot; style=&quot;border-style:solid;&quot;&gt;&lt;div style=&quot;height: 2px;&quot;&gt;&lt;font style=&quot;font-size: 12px;&quot;&gt;&amp;nbsp;+ Él() : bool {override}&lt;/font&gt;&lt;/div&gt;&lt;div style=&quot;height: 2px;&quot;&gt;&lt;font style=&quot;font-size: 12px;&quot;&gt;&amp;nbsp;&lt;/font&gt;&lt;/div&gt;&lt;div style=&quot;height: 2px;&quot;&gt;&lt;font style=&quot;font-size: 12px;&quot;&gt;&amp;nbsp;&lt;/font&gt;&lt;/div&gt;&lt;div style=&quot;height: 2px;&quot;&gt;&lt;font style=&quot;font-size: 12px;&quot;&gt;&lt;br&gt;&lt;/font&gt;&lt;/div&gt;&lt;div style=&quot;height: 2px;&quot;&gt;&lt;font style=&quot;font-size: 12px;&quot;&gt;&lt;br&gt;&lt;/font&gt;&lt;/div&gt;&lt;div style=&quot;height: 2px;&quot;&gt;&lt;font style=&quot;font-size: 12px;&quot;&gt;&amp;nbsp;&lt;/font&gt;&lt;/div&gt;&lt;div style=&quot;height: 2px;&quot;&gt;&lt;font style=&quot;font-size: 12px;&quot;&gt;&lt;br&gt;&lt;/font&gt;&lt;/div&gt;&lt;div style=&quot;height: 2px;&quot;&gt;&lt;font style=&quot;font-size: 12px;&quot;&gt;&amp;nbsp;+ TápMennyMódosító(sug : Sugárzás) {override}&lt;/font&gt;&lt;/div&gt;&lt;div style=&quot;height: 2px;&quot;&gt;&lt;font style=&quot;font-size: 12px;&quot;&gt;&lt;br&gt;&lt;/font&gt;&lt;/div&gt;&lt;div style=&quot;height: 2px;&quot;&gt;&lt;font style=&quot;font-size: 12px;&quot;&gt;&lt;br&gt;&lt;/font&gt;&lt;/div&gt;&lt;div style=&quot;height: 2px;&quot;&gt;&lt;font style=&quot;font-size: 12px;&quot;&gt;&lt;br&gt;&lt;/font&gt;&lt;/div&gt;&lt;div style=&quot;height: 2px;&quot;&gt;&lt;font style=&quot;font-size: 12px;&quot;&gt;&lt;br&gt;&lt;/font&gt;&lt;/div&gt;&lt;div style=&quot;height: 2px;&quot;&gt;&lt;font style=&quot;font-size: 12px;&quot;&gt;&lt;br&gt;&lt;/font&gt;&lt;/div&gt;&lt;div style=&quot;height: 2px;&quot;&gt;&lt;font style=&quot;font-size: 12px;&quot;&gt;&lt;br&gt;&lt;/font&gt;&lt;/div&gt;&lt;div style=&quot;height: 2px;&quot;&gt;&amp;nbsp;+ getTápMennyi() : int&lt;/div&gt;" style="verticalAlign=top;align=left;overflow=fill;html=1;whiteSpace=wrap;fillColor=#d5e8d4;strokeColor=#82b366;gradientColor=#97d077;" parent="WIyWlLk6GJQsqaUBKTNV-1" vertex="1">
          <mxGeometry x="5" y="760" width="265" height="90" as="geometry" />
        </mxCell>
        <mxCell id="IUOXqDqNGWJRMbw2lu2S-19" style="edgeStyle=orthogonalEdgeStyle;rounded=0;orthogonalLoop=1;jettySize=auto;html=1;exitX=0.5;exitY=1;exitDx=0;exitDy=0;" parent="WIyWlLk6GJQsqaUBKTNV-1" source="IUOXqDqNGWJRMbw2lu2S-16" target="IUOXqDqNGWJRMbw2lu2S-16" edge="1">
          <mxGeometry relative="1" as="geometry" />
        </mxCell>
        <mxCell id="IUOXqDqNGWJRMbw2lu2S-23" value="" style="endArrow=block;endFill=1;html=1;edgeStyle=orthogonalEdgeStyle;align=left;verticalAlign=top;rounded=0;strokeWidth=2;" parent="WIyWlLk6GJQsqaUBKTNV-1" edge="1">
          <mxGeometry x="-1" relative="1" as="geometry">
            <mxPoint x="380" y="970" as="sourcePoint" />
            <mxPoint x="260" y="710" as="targetPoint" />
            <Array as="points">
              <mxPoint x="380" y="970" />
              <mxPoint x="380" y="740" />
              <mxPoint x="260" y="740" />
            </Array>
            <mxPoint as="offset" />
          </mxGeometry>
        </mxCell>
        <mxCell id="IUOXqDqNGWJRMbw2lu2S-24" value="" style="endArrow=none;html=1;rounded=0;strokeWidth=2;exitX=0.591;exitY=0.022;exitDx=0;exitDy=0;exitPerimeter=0;" parent="WIyWlLk6GJQsqaUBKTNV-1" source="IUOXqDqNGWJRMbw2lu2S-17" edge="1">
          <mxGeometry width="50" height="50" relative="1" as="geometry">
            <mxPoint x="260" y="890" as="sourcePoint" />
            <mxPoint x="259.99999999999994" y="730" as="targetPoint" />
          </mxGeometry>
        </mxCell>
        <mxCell id="IUOXqDqNGWJRMbw2lu2S-40" value="i := 1&amp;nbsp;&lt;div&gt;while j ≤ napok loop&amp;nbsp;&lt;/div&gt;&lt;div&gt;&lt;span style=&quot;white-space: pre;&quot;&gt;&#x9;&lt;/span&gt;kölcsönhatás()&lt;br&gt;&lt;/div&gt;&lt;div&gt;&lt;span style=&quot;white-space: pre;&quot;&gt;&#x9;&lt;/span&gt;i := i + 1&lt;br&gt;&lt;/div&gt;&lt;div&gt;&lt;span style=&quot;white-space: pre;&quot;&gt;&#x9;&lt;/span&gt;sugárzás := maiSugárzás()&lt;br&gt;&lt;/div&gt;&lt;div&gt;endloop&lt;/div&gt;&lt;div&gt;legéletrevalóbb()&lt;/div&gt;" style="shape=note;whiteSpace=wrap;html=1;backgroundOutline=1;darkOpacity=0.05;fillColor=#e8c987;strokeColor=#000000;size=14;align=left;fillStyle=auto;gradientColor=#e8ebbc;" parent="WIyWlLk6GJQsqaUBKTNV-1" vertex="1">
          <mxGeometry x="290" y="160" width="180" height="115" as="geometry" />
        </mxCell>
        <mxCell id="IUOXqDqNGWJRMbw2lu2S-41" style="rounded=0;orthogonalLoop=1;jettySize=auto;html=1;entryX=-0.019;entryY=0.554;entryDx=0;entryDy=0;entryPerimeter=0;edgeStyle=orthogonalEdgeStyle;endArrow=oval;endFill=1;exitX=0.052;exitY=0.997;exitDx=0;exitDy=0;exitPerimeter=0;" parent="WIyWlLk6GJQsqaUBKTNV-1" source="IUOXqDqNGWJRMbw2lu2S-40" target="IUOXqDqNGWJRMbw2lu2S-0" edge="1">
          <mxGeometry relative="1" as="geometry">
            <Array as="points">
              <mxPoint x="299" y="290" />
              <mxPoint x="290" y="290" />
              <mxPoint x="290" y="392" />
            </Array>
            <mxPoint x="300" y="290" as="sourcePoint" />
          </mxGeometry>
        </mxCell>
        <mxCell id="IUOXqDqNGWJRMbw2lu2S-43" value="&lt;div&gt;i := 1&amp;nbsp;&lt;span style=&quot;background-color: initial;&quot;&gt;&amp;nbsp;&lt;/span&gt;&lt;/div&gt;&lt;div&gt;&lt;div&gt;while i≤|növények| loop&lt;/div&gt;&lt;div&gt;&lt;span style=&quot;white-space: pre;&quot;&gt;&#x9;&lt;/span&gt;if növények[i].Él() then&lt;/div&gt;&lt;div&gt;&lt;span style=&quot;white-space: pre;&quot;&gt;&#x9;&lt;span style=&quot;white-space: pre;&quot;&gt;&#x9;&lt;/span&gt;&lt;/span&gt;növények[i].TápMennyiMódosító(sugárzás)&lt;/div&gt;&lt;div&gt;&lt;span style=&quot;background-color: initial;&quot;&gt;&lt;span style=&quot;white-space: pre;&quot;&gt;&#x9;&lt;/span&gt;&lt;span style=&quot;white-space: pre;&quot;&gt;&#x9;&lt;/span&gt;sugárzás.IgényekMódosító(növények[i])&lt;/span&gt;&lt;/div&gt;&lt;div&gt;&lt;span style=&quot;white-space: pre;&quot;&gt;&#x9;&lt;/span&gt;endif&lt;/div&gt;&lt;div&gt;&lt;span style=&quot;white-space: pre;&quot;&gt;&#x9;&lt;/span&gt;i := i + 1&lt;/div&gt;&lt;div&gt;endloop&lt;/div&gt;&lt;/div&gt;" style="shape=note;whiteSpace=wrap;html=1;backgroundOutline=1;darkOpacity=0.05;fillColor=#e8c987;strokeColor=#000000;size=14;align=left;fillStyle=auto;gradientColor=#e8ebbc;" parent="WIyWlLk6GJQsqaUBKTNV-1" vertex="1">
          <mxGeometry x="480" y="220" width="300" height="112.5" as="geometry" />
        </mxCell>
        <mxCell id="IUOXqDqNGWJRMbw2lu2S-45" value="" style="endArrow=oval;html=1;rounded=0;endFill=1;exitX=0;exitY=0.718;exitDx=0;exitDy=0;exitPerimeter=0;" parent="WIyWlLk6GJQsqaUBKTNV-1" source="IUOXqDqNGWJRMbw2lu2S-43" edge="1">
          <mxGeometry width="50" height="50" relative="1" as="geometry">
            <mxPoint x="410.30000000000007" y="295.005" as="sourcePoint" />
            <mxPoint x="400" y="402.23" as="targetPoint" />
            <Array as="points">
              <mxPoint x="450" y="370" />
              <mxPoint x="400" y="402.23" />
            </Array>
          </mxGeometry>
        </mxCell>
        <mxCell id="IUOXqDqNGWJRMbw2lu2S-46" value="&amp;nbsp;alfa_igény := a&amp;nbsp;&lt;div&gt;&amp;nbsp;delta_igény := d&lt;/div&gt;" style="shape=note;whiteSpace=wrap;html=1;backgroundOutline=1;darkOpacity=0.05;fillColor=#e8c987;strokeColor=#000000;size=14;align=left;fillStyle=auto;gradientColor=#e8ebbc;" parent="WIyWlLk6GJQsqaUBKTNV-1" vertex="1">
          <mxGeometry x="390" y="580" width="100" height="40" as="geometry" />
        </mxCell>
        <mxCell id="IUOXqDqNGWJRMbw2lu2S-50" value="&lt;div&gt;&amp;nbsp;&lt;span style=&quot;background-color: initial;&quot;&gt;if növény = Puffancs then&lt;/span&gt;&lt;/div&gt;&lt;div&gt;&lt;span style=&quot;white-space: pre;&quot;&gt;&#x9;a&lt;/span&gt;lfa_igény := alfa_igény + 10&lt;/div&gt;&lt;div&gt;&amp;nbsp;else if növény = Deltafa&amp;nbsp;&lt;span style=&quot;background-color: initial;&quot;&gt;then&lt;/span&gt;&lt;/div&gt;&lt;div&gt;&lt;span style=&quot;white-space: pre;&quot;&gt;&#x9;&lt;/span&gt;if növény.getTápMennyi() ≺ 5 then&lt;/div&gt;&lt;div&gt;&lt;span style=&quot;white-space: pre;&quot;&gt;&#x9;&lt;/span&gt;&lt;span style=&quot;white-space: pre;&quot;&gt;&lt;span style=&quot;white-space: pre;&quot;&gt;&#x9;&lt;/span&gt;delta_igény := delta_igény + 4&lt;/span&gt;&lt;/div&gt;&lt;div&gt;&lt;span style=&quot;white-space: pre;&quot;&gt;&#x9;&lt;/span&gt;else if 5 ≤ növény.getTápMennyi()&amp;nbsp;≤ 10 then&lt;/div&gt;&lt;div&gt;&lt;span style=&quot;white-space: pre;&quot;&gt;&#x9;&lt;/span&gt;&lt;span style=&quot;white-space: pre;&quot;&gt;&#x9;&lt;/span&gt;&lt;span style=&quot;white-space: pre;&quot;&gt;delta_igény := delta_igény + 1&lt;/span&gt;&lt;/div&gt;&lt;div&gt;&lt;span style=&quot;white-space: pre;&quot;&gt;&#x9;&lt;/span&gt;endif&lt;/div&gt;&lt;div&gt;&lt;span style=&quot;background-color: initial;&quot;&gt;&amp;nbsp;endif&lt;/span&gt;&lt;br&gt;&lt;/div&gt;" style="shape=note;whiteSpace=wrap;html=1;backgroundOutline=1;darkOpacity=0.05;fillColor=#e8c987;strokeColor=#000000;size=14;align=left;fillStyle=auto;gradientColor=#e8ebbc;" parent="WIyWlLk6GJQsqaUBKTNV-1" vertex="1">
          <mxGeometry x="555" y="350" width="265" height="140" as="geometry" />
        </mxCell>
        <mxCell id="IUOXqDqNGWJRMbw2lu2S-52" value="&lt;div style=&quot;font-size: 11px;&quot;&gt;&lt;font style=&quot;font-size: 11px;&quot;&gt;a :=&amp;nbsp;&lt;span style=&quot;background-color: initial;&quot;&gt;sugárzás.getAlfaIgény()&lt;/span&gt;&lt;/font&gt;&lt;/div&gt;&lt;div style=&quot;font-size: 11px;&quot;&gt;&lt;font style=&quot;font-size: 11px;&quot;&gt;d := sugárzás.getDeltaIgény()&lt;/font&gt;&lt;/div&gt;&lt;div style=&quot;font-size: 11px;&quot;&gt;&lt;font style=&quot;font-size: 11px;&quot;&gt;if a&lt;span style=&quot;background-color: initial;&quot;&gt;&amp;nbsp;- d&lt;/span&gt;&lt;span style=&quot;background-color: initial;&quot;&gt;&amp;nbsp;≥ 3&amp;nbsp;&lt;/span&gt;&lt;span style=&quot;background-color: initial;&quot;&gt;then&amp;nbsp;&lt;/span&gt;&lt;/font&gt;&lt;/div&gt;&lt;div style=&quot;font-size: 11px;&quot;&gt;&lt;font style=&quot;font-size: 11px;&quot;&gt;&lt;span style=&quot;background-color: initial;&quot;&gt;&lt;span style=&quot;white-space: pre;&quot;&gt;&#x9;&lt;/span&gt;return new AlfaSugárzás(&lt;/span&gt;&lt;span style=&quot;background-color: initial;&quot;&gt;a , d&lt;/span&gt;&lt;span style=&quot;background-color: initial;&quot;&gt;)&lt;/span&gt;&lt;/font&gt;&lt;/div&gt;&lt;div style=&quot;font-size: 11px;&quot;&gt;&lt;font style=&quot;font-size: 11px;&quot;&gt;else if d&amp;nbsp;&lt;span style=&quot;background-color: initial;&quot;&gt;- a&amp;nbsp;&lt;/span&gt;&lt;span style=&quot;background-color: initial;&quot;&gt;≥ 3&amp;nbsp;&lt;/span&gt;&lt;/font&gt;&lt;/div&gt;&lt;div style=&quot;font-size: 11px;&quot;&gt;&lt;font style=&quot;font-size: 11px;&quot;&gt;&lt;span style=&quot;white-space: pre;&quot;&gt;&#x9;&lt;/span&gt;then&amp;nbsp;&lt;span style=&quot;background-color: initial;&quot;&gt;return new DeltaSugárzás(&lt;/span&gt;&lt;span style=&quot;background-color: initial;&quot;&gt;a , d&lt;/span&gt;&lt;span style=&quot;background-color: initial;&quot;&gt;)&lt;/span&gt;&lt;/font&gt;&lt;/div&gt;&lt;div style=&quot;font-size: 11px;&quot;&gt;&lt;font style=&quot;font-size: 11px;&quot;&gt;else&lt;/font&gt;&lt;/div&gt;&lt;div style=&quot;font-size: 11px;&quot;&gt;&lt;font style=&quot;font-size: 11px;&quot;&gt;&lt;span style=&quot;white-space: pre;&quot;&gt;&#x9;&lt;/span&gt;then&amp;nbsp;&lt;span style=&quot;background-color: initial;&quot;&gt;return new NincsSugárzás(&lt;/span&gt;&lt;span style=&quot;background-color: initial;&quot;&gt;a , d&lt;/span&gt;&lt;span style=&quot;background-color: initial;&quot;&gt;)&lt;/span&gt;&lt;/font&gt;&lt;/div&gt;&lt;div style=&quot;font-size: 11px;&quot;&gt;&lt;font style=&quot;font-size: 11px;&quot;&gt;endif&lt;/font&gt;&lt;/div&gt;" style="shape=note;whiteSpace=wrap;html=1;backgroundOutline=1;darkOpacity=0.05;fillColor=#e8c987;strokeColor=#000000;size=14;align=left;fillStyle=auto;gradientColor=#e8ebbc;" parent="WIyWlLk6GJQsqaUBKTNV-1" vertex="1">
          <mxGeometry x="30" y="380" width="220" height="140" as="geometry" />
        </mxCell>
        <mxCell id="IUOXqDqNGWJRMbw2lu2S-53" style="rounded=0;orthogonalLoop=1;jettySize=auto;html=1;entryX=0;entryY=0.75;entryDx=0;entryDy=0;edgeStyle=orthogonalEdgeStyle;endArrow=oval;endFill=1;" parent="WIyWlLk6GJQsqaUBKTNV-1" target="IUOXqDqNGWJRMbw2lu2S-0" edge="1">
          <mxGeometry relative="1" as="geometry">
            <mxPoint x="290.67999999999995" y="421.22" as="targetPoint" />
            <Array as="points">
              <mxPoint x="250" y="421" />
              <mxPoint x="300" y="421" />
            </Array>
            <mxPoint x="250.00000000000006" y="418.78" as="sourcePoint" />
          </mxGeometry>
        </mxCell>
        <mxCell id="IUOXqDqNGWJRMbw2lu2S-54" value="" style="endArrow=block;endFill=1;html=1;edgeStyle=orthogonalEdgeStyle;align=left;verticalAlign=top;rounded=0;strokeWidth=2;" parent="WIyWlLk6GJQsqaUBKTNV-1" edge="1">
          <mxGeometry x="-1" relative="1" as="geometry">
            <mxPoint x="610" y="690" as="sourcePoint" />
            <mxPoint x="609.64" y="660" as="targetPoint" />
            <Array as="points">
              <mxPoint x="610" y="690" />
            </Array>
            <mxPoint as="offset" />
          </mxGeometry>
        </mxCell>
        <mxCell id="IUOXqDqNGWJRMbw2lu2S-55" value="" style="endArrow=none;html=1;rounded=0;" parent="WIyWlLk6GJQsqaUBKTNV-1" edge="1">
          <mxGeometry width="50" height="50" relative="1" as="geometry">
            <mxPoint x="550" y="690" as="sourcePoint" />
            <mxPoint x="710" y="690" as="targetPoint" />
            <Array as="points">
              <mxPoint x="610" y="689.66" />
            </Array>
          </mxGeometry>
        </mxCell>
        <mxCell id="IUOXqDqNGWJRMbw2lu2S-57" value="&lt;p style=&quot;margin: 4px 0px 0px; text-align: center;&quot;&gt;&lt;span style=&quot;background-color: initial; text-align: left;&quot;&gt;&lt;b&gt;AlfaSugárzás&lt;/b&gt;&lt;/span&gt;&lt;br&gt;&lt;/p&gt;&lt;hr size=&quot;1&quot; style=&quot;border-style:solid;&quot;&gt;&lt;div style=&quot;height:2px;&quot;&gt;&lt;/div&gt;&lt;hr size=&quot;1&quot; style=&quot;border-style:solid;&quot;&gt;&lt;div style=&quot;height: 2px;&quot;&gt;&lt;div style=&quot;height: 2px;&quot;&gt;&lt;br&gt;&lt;/div&gt;&lt;/div&gt;" style="verticalAlign=top;align=left;overflow=fill;html=1;whiteSpace=wrap;fillColor=#fff2cc;strokeColor=#d6b656;" parent="WIyWlLk6GJQsqaUBKTNV-1" vertex="1">
          <mxGeometry x="610" y="700" width="190" height="50" as="geometry" />
        </mxCell>
        <mxCell id="IUOXqDqNGWJRMbw2lu2S-69" style="edgeStyle=orthogonalEdgeStyle;rounded=0;orthogonalLoop=1;jettySize=auto;html=1;endArrow=none;endFill=0;" parent="WIyWlLk6GJQsqaUBKTNV-1" source="IUOXqDqNGWJRMbw2lu2S-58" edge="1">
          <mxGeometry relative="1" as="geometry">
            <mxPoint x="550" y="790" as="targetPoint" />
            <Array as="points">
              <mxPoint x="550" y="785" />
            </Array>
          </mxGeometry>
        </mxCell>
        <mxCell id="IUOXqDqNGWJRMbw2lu2S-58" value="&lt;p style=&quot;text-align: center; margin: 4px 0px 0px;&quot;&gt;&lt;span style=&quot;background-color: initial; text-align: left;&quot;&gt;&lt;b&gt;DeltaSugárzás&lt;/b&gt;&lt;/span&gt;&lt;br&gt;&lt;/p&gt;&lt;hr size=&quot;1&quot; style=&quot;border-style:solid;&quot;&gt;&lt;div style=&quot;height:2px;&quot;&gt;&lt;/div&gt;&lt;hr size=&quot;1&quot; style=&quot;border-style:solid;&quot;&gt;&lt;div style=&quot;height: 2px;&quot;&gt;&lt;div style=&quot;height: 2px;&quot;&gt;&lt;br&gt;&lt;/div&gt;&lt;/div&gt;" style="verticalAlign=top;align=left;overflow=fill;html=1;whiteSpace=wrap;fillColor=#fff2cc;strokeColor=#d6b656;" parent="WIyWlLk6GJQsqaUBKTNV-1" vertex="1">
          <mxGeometry x="595" y="760" width="190" height="50" as="geometry" />
        </mxCell>
        <mxCell id="IUOXqDqNGWJRMbw2lu2S-70" style="edgeStyle=orthogonalEdgeStyle;rounded=0;orthogonalLoop=1;jettySize=auto;html=1;endArrow=none;endFill=0;" parent="WIyWlLk6GJQsqaUBKTNV-1" source="IUOXqDqNGWJRMbw2lu2S-59" edge="1">
          <mxGeometry relative="1" as="geometry">
            <mxPoint x="550" y="840" as="targetPoint" />
          </mxGeometry>
        </mxCell>
        <mxCell id="IUOXqDqNGWJRMbw2lu2S-59" value="&lt;p style=&quot;text-align: center; margin: 4px 0px 0px;&quot;&gt;&lt;span style=&quot;background-color: initial; text-align: left;&quot;&gt;&lt;b&gt;NincsSugárzás&lt;/b&gt;&lt;/span&gt;&lt;br&gt;&lt;/p&gt;&lt;hr size=&quot;1&quot; style=&quot;border-style:solid;&quot;&gt;&lt;div style=&quot;height:2px;&quot;&gt;&lt;/div&gt;&lt;hr size=&quot;1&quot; style=&quot;border-style:solid;&quot;&gt;&lt;div style=&quot;height: 2px;&quot;&gt;&lt;div style=&quot;height: 2px;&quot;&gt;&lt;br&gt;&lt;/div&gt;&lt;/div&gt;" style="verticalAlign=top;align=left;overflow=fill;html=1;whiteSpace=wrap;fillColor=#fff2cc;strokeColor=#d6b656;" parent="WIyWlLk6GJQsqaUBKTNV-1" vertex="1">
          <mxGeometry x="570" y="820" width="180" height="50" as="geometry" />
        </mxCell>
        <mxCell id="IUOXqDqNGWJRMbw2lu2S-60" value="" style="endArrow=none;html=1;rounded=0;" parent="WIyWlLk6GJQsqaUBKTNV-1" edge="1">
          <mxGeometry width="50" height="50" relative="1" as="geometry">
            <mxPoint x="550" y="840" as="sourcePoint" />
            <mxPoint x="550" y="690" as="targetPoint" />
            <Array as="points">
              <mxPoint x="550" y="830" />
              <mxPoint x="550" y="800" />
              <mxPoint x="550" y="750" />
            </Array>
          </mxGeometry>
        </mxCell>
        <mxCell id="IUOXqDqNGWJRMbw2lu2S-62" value="" style="endArrow=none;html=1;rounded=0;" parent="WIyWlLk6GJQsqaUBKTNV-1" edge="1">
          <mxGeometry width="50" height="50" relative="1" as="geometry">
            <mxPoint x="710" y="700" as="sourcePoint" />
            <mxPoint x="710" y="690" as="targetPoint" />
            <Array as="points">
              <mxPoint x="710" y="690" />
            </Array>
          </mxGeometry>
        </mxCell>
        <mxCell id="IUOXqDqNGWJRMbw2lu2S-67" value="" style="endArrow=oval;html=1;rounded=0;endFill=1;exitX=0.772;exitY=1.001;exitDx=0;exitDy=0;exitPerimeter=0;" parent="WIyWlLk6GJQsqaUBKTNV-1" source="IUOXqDqNGWJRMbw2lu2S-50" edge="1">
          <mxGeometry width="50" height="50" relative="1" as="geometry">
            <mxPoint x="670" y="530" as="sourcePoint" />
            <mxPoint x="720" y="620" as="targetPoint" />
            <Array as="points">
              <mxPoint x="733" y="580" />
            </Array>
          </mxGeometry>
        </mxCell>
        <mxCell id="IUOXqDqNGWJRMbw2lu2S-68" style="edgeStyle=orthogonalEdgeStyle;rounded=0;orthogonalLoop=1;jettySize=auto;html=1;endArrow=oval;endFill=1;" parent="WIyWlLk6GJQsqaUBKTNV-1" edge="1">
          <mxGeometry relative="1" as="geometry">
            <mxPoint x="490" y="600" as="sourcePoint" />
            <mxPoint x="510" y="600.12" as="targetPoint" />
            <Array as="points">
              <mxPoint x="500" y="600.12" />
            </Array>
          </mxGeometry>
        </mxCell>
        <mxCell id="IUOXqDqNGWJRMbw2lu2S-79" style="edgeStyle=orthogonalEdgeStyle;rounded=0;orthogonalLoop=1;jettySize=auto;html=1;endArrow=oval;endFill=1;exitX=0.043;exitY=1.013;exitDx=0;exitDy=0;exitPerimeter=0;" parent="WIyWlLk6GJQsqaUBKTNV-1" edge="1">
          <mxGeometry relative="1" as="geometry">
            <mxPoint x="30" y="800" as="targetPoint" />
            <mxPoint x="12.955000000000155" y="730.52" as="sourcePoint" />
            <Array as="points">
              <mxPoint x="30" y="750" />
            </Array>
          </mxGeometry>
        </mxCell>
        <mxCell id="IUOXqDqNGWJRMbw2lu2S-81" style="edgeStyle=orthogonalEdgeStyle;rounded=0;orthogonalLoop=1;jettySize=auto;html=1;endArrow=oval;endFill=1;" parent="WIyWlLk6GJQsqaUBKTNV-1" edge="1">
          <mxGeometry relative="1" as="geometry">
            <mxPoint x="230" y="940" as="targetPoint" />
            <mxPoint x="310" y="890" as="sourcePoint" />
            <Array as="points">
              <mxPoint x="310" y="882" />
              <mxPoint x="310" y="938" />
              <mxPoint x="230" y="938" />
            </Array>
          </mxGeometry>
        </mxCell>
        <mxCell id="IUOXqDqNGWJRMbw2lu2S-82" value="&lt;font style=&quot;font-size: 10px;&quot;&gt;&lt;b&gt;return&lt;/b&gt;&lt;b&gt;&amp;nbsp;&lt;/b&gt;&lt;span style=&quot;font-size: 12px;&quot;&gt;tápMennyi&amp;nbsp;&lt;/span&gt;&amp;gt; 0&lt;/font&gt;" style="shape=note;whiteSpace=wrap;html=1;backgroundOutline=1;darkOpacity=0.05;fillColor=#e8c987;strokeColor=#000000;size=14;align=left;fillStyle=auto;gradientColor=#e8ebbc;" parent="WIyWlLk6GJQsqaUBKTNV-1" vertex="1">
          <mxGeometry x="5" y="705" width="115" height="40" as="geometry" />
        </mxCell>
        <mxCell id="IUOXqDqNGWJRMbw2lu2S-83" style="edgeStyle=orthogonalEdgeStyle;rounded=0;orthogonalLoop=1;jettySize=auto;html=1;endArrow=oval;endFill=1;exitX=0.312;exitY=0.993;exitDx=0;exitDy=0;exitPerimeter=0;" parent="WIyWlLk6GJQsqaUBKTNV-1" edge="1">
          <mxGeometry relative="1" as="geometry">
            <mxPoint x="420" y="1020" as="targetPoint" />
            <mxPoint x="459.9799999999999" y="950" as="sourcePoint" />
            <Array as="points">
              <mxPoint x="460" y="1020" />
            </Array>
          </mxGeometry>
        </mxCell>
        <mxCell id="llq4M6hsSdFKrIHtVXSO-1" value="&lt;b&gt;if&lt;/b&gt; sug = AlfaSugárzás &lt;b&gt;or&lt;/b&gt;&lt;div&gt;&lt;span style=&quot;background-color: initial;&quot;&gt;&amp;nbsp;&lt;b&gt;if&lt;/b&gt; sug is DeltaSugárzás &lt;b&gt;then&amp;nbsp;&lt;/b&gt;&lt;/span&gt;&lt;div style=&quot;line-height: 140%;&quot;&gt;&lt;span style=&quot;white-space: pre;&quot;&gt;&#x9;&lt;/span&gt;tápMennyi:= tápMennyi&amp;nbsp;+1&lt;/div&gt;&lt;div style=&quot;line-height: 140%;&quot;&gt;&amp;nbsp;&lt;b&gt;else&amp;nbsp;&lt;/b&gt;tápMennyi:= tápMennyi- 1&amp;nbsp;&lt;/div&gt;&lt;div style=&quot;line-height: 140%;&quot;&gt;&amp;nbsp;&lt;b&gt;endif&lt;span style=&quot;background-color: initial; white-space: pre;&quot;&gt;&#x9;&lt;/span&gt;&lt;/b&gt;&lt;/div&gt;&lt;/div&gt;" style="shape=note;whiteSpace=wrap;html=1;backgroundOutline=1;darkOpacity=0.05;fillColor=#e8c987;strokeColor=#000000;size=14;align=left;fillStyle=auto;gradientColor=#e8ebbc;" parent="WIyWlLk6GJQsqaUBKTNV-1" vertex="1">
          <mxGeometry x="325" y="720" width="185" height="110" as="geometry" />
        </mxCell>
        <mxCell id="llq4M6hsSdFKrIHtVXSO-2" style="edgeStyle=orthogonalEdgeStyle;rounded=0;orthogonalLoop=1;jettySize=auto;html=1;entryX=1.008;entryY=0.55;entryDx=0;entryDy=0;entryPerimeter=0;endArrow=oval;endFill=1;" parent="WIyWlLk6GJQsqaUBKTNV-1" edge="1">
          <mxGeometry relative="1" as="geometry">
            <mxPoint x="324.9999999999999" y="795.5" as="sourcePoint" />
            <mxPoint x="272.12" y="830" as="targetPoint" />
            <Array as="points">
              <mxPoint x="300" y="795.5" />
              <mxPoint x="300" y="829.5" />
            </Array>
          </mxGeometry>
        </mxCell>
        <mxCell id="llq4M6hsSdFKrIHtVXSO-3" value="if sug = AlfaSugárzás then&lt;div style=&quot;line-height: 140%;&quot;&gt;&lt;span style=&quot;white-space: pre;&quot;&gt;&#x9;&lt;/span&gt;tápMennyi := tápMennyi + 2&amp;nbsp;&lt;/div&gt;&lt;div style=&quot;line-height: 140%;&quot;&gt;else if sug = DeltaSugárzás then&amp;nbsp;&lt;/div&gt;&lt;div style=&quot;line-height: 140%;&quot;&gt;&lt;span style=&quot;white-space: pre;&quot;&gt;&#x9;&lt;/span&gt;tápMennyi := tápMennyi - 2&lt;/div&gt;&lt;div style=&quot;line-height: 140%;&quot;&gt;&amp;nbsp;else tápMennyi := tápMennyi - 1&amp;nbsp;&lt;/div&gt;&lt;div style=&quot;line-height: 140%;&quot;&gt;&amp;nbsp;endif&lt;span style=&quot;background-color: initial; white-space: pre;&quot;&gt;&#x9;&lt;/span&gt;&lt;/div&gt;" style="shape=note;whiteSpace=wrap;html=1;backgroundOutline=1;darkOpacity=0.05;fillColor=#e8c987;strokeColor=#000000;size=14;align=left;fillStyle=auto;gradientColor=#e8ebbc;" parent="WIyWlLk6GJQsqaUBKTNV-1" vertex="1">
          <mxGeometry x="610" y="950" width="185" height="110" as="geometry" />
        </mxCell>
        <mxCell id="llq4M6hsSdFKrIHtVXSO-5" style="edgeStyle=orthogonalEdgeStyle;rounded=0;orthogonalLoop=1;jettySize=auto;html=1;entryX=1.002;entryY=0.867;entryDx=0;entryDy=0;entryPerimeter=0;endArrow=oval;endFill=1;" parent="WIyWlLk6GJQsqaUBKTNV-1" source="llq4M6hsSdFKrIHtVXSO-3" target="IUOXqDqNGWJRMbw2lu2S-16" edge="1">
          <mxGeometry relative="1" as="geometry" />
        </mxCell>
        <mxCell id="llq4M6hsSdFKrIHtVXSO-6" value="if sug = AlfaSugárzás then&lt;div style=&quot;line-height: 140%;&quot;&gt;&lt;span style=&quot;white-space: pre;&quot;&gt;&#x9;&lt;/span&gt;tápMennyi := tápMennyi - 3&lt;/div&gt;&lt;div style=&quot;line-height: 140%;&quot;&gt;else if sug = DeltaSugárzás then&amp;nbsp;&lt;/div&gt;&lt;div style=&quot;line-height: 140%;&quot;&gt;&lt;span style=&quot;white-space: pre;&quot;&gt;&#x9;&lt;/span&gt;tápMennyi := tápMennyi + 4&lt;/div&gt;&lt;div style=&quot;line-height: 140%;&quot;&gt;&amp;nbsp;else tápMennyi := tápMennyi - 1&amp;nbsp;&lt;/div&gt;&lt;div style=&quot;line-height: 140%;&quot;&gt;&amp;nbsp;endif&lt;span style=&quot;background-color: initial; white-space: pre;&quot;&gt;&#x9;&lt;/span&gt;&lt;/div&gt;" style="shape=note;whiteSpace=wrap;html=1;backgroundOutline=1;darkOpacity=0.05;fillColor=#e8c987;strokeColor=#000000;size=14;align=left;fillStyle=auto;gradientColor=#e8ebbc;" parent="WIyWlLk6GJQsqaUBKTNV-1" vertex="1">
          <mxGeometry x="10" y="970" width="185" height="110" as="geometry" />
        </mxCell>
        <mxCell id="llq4M6hsSdFKrIHtVXSO-13" value="" style="endArrow=none;html=1;rounded=0;strokeWidth=2;" parent="WIyWlLk6GJQsqaUBKTNV-1" target="IUOXqDqNGWJRMbw2lu2S-17" edge="1">
          <mxGeometry width="50" height="50" relative="1" as="geometry">
            <mxPoint x="260" y="890" as="sourcePoint" />
            <mxPoint x="259.99999999999994" y="730" as="targetPoint" />
          </mxGeometry>
        </mxCell>
        <mxCell id="IUOXqDqNGWJRMbw2lu2S-17" value="&lt;p style=&quot;margin:0px;margin-top:4px;text-align:center;&quot;&gt;&lt;b&gt;Deltafa&lt;/b&gt;&lt;br&gt;&lt;/p&gt;&lt;hr size=&quot;1&quot; style=&quot;border-style:solid;&quot;&gt;&lt;div style=&quot;height:2px;&quot;&gt;&lt;/div&gt;&lt;hr size=&quot;1&quot; style=&quot;border-style:solid;&quot;&gt;&lt;div style=&quot;height: 2px;&quot;&gt;&lt;div style=&quot;height: 2px;&quot;&gt;&amp;nbsp;+ Él() : bool {override}&lt;/div&gt;&lt;div style=&quot;height: 2px;&quot;&gt;&amp;nbsp;&lt;/div&gt;&lt;div style=&quot;height: 2px;&quot;&gt;&amp;nbsp;&lt;/div&gt;&lt;div style=&quot;height: 2px;&quot;&gt;&lt;br&gt;&lt;/div&gt;&lt;div style=&quot;height: 2px;&quot;&gt;&lt;br&gt;&lt;/div&gt;&lt;div style=&quot;height: 2px;&quot;&gt;&amp;nbsp;&lt;/div&gt;&lt;div style=&quot;height: 2px;&quot;&gt;&lt;br&gt;&lt;/div&gt;&lt;div style=&quot;height: 2px;&quot;&gt;&lt;div style=&quot;height: 2px;&quot;&gt;&amp;nbsp;+ TápMennyMódosító(sug : Sugárzás) {override}&lt;/div&gt;&lt;div&gt;&lt;br&gt;&lt;/div&gt;&lt;/div&gt;&lt;div style=&quot;height: 2px;&quot;&gt;&lt;br&gt;&lt;/div&gt;&lt;div style=&quot;height: 2px;&quot;&gt;&lt;br&gt;&lt;/div&gt;&lt;div style=&quot;height: 2px;&quot;&gt;&lt;br&gt;&lt;/div&gt;&lt;div style=&quot;height: 2px;&quot;&gt;&amp;nbsp;&lt;/div&gt;&lt;div style=&quot;height: 2px;&quot;&gt;&lt;span style=&quot;background-color: initial;&quot;&gt;&amp;nbsp;&lt;/span&gt;&lt;/div&gt;&lt;div style=&quot;height: 2px;&quot;&gt;&lt;br&gt;&lt;/div&gt;&lt;/div&gt;" style="verticalAlign=top;align=left;overflow=fill;html=1;whiteSpace=wrap;fillColor=#d5e8d4;strokeColor=#82b366;gradientColor=#97d077;" parent="WIyWlLk6GJQsqaUBKTNV-1" vertex="1">
          <mxGeometry x="100" y="870" width="270" height="90" as="geometry" />
        </mxCell>
        <mxCell id="llq4M6hsSdFKrIHtVXSO-14" value="&lt;font style=&quot;font-size: 10px;&quot;&gt;&lt;b&gt;return&lt;/b&gt;&lt;b&gt;&amp;nbsp;&lt;/b&gt;&lt;span style=&quot;font-size: 12px;&quot;&gt;tápMennyi&amp;nbsp;&lt;/span&gt;&amp;gt; 0&lt;/font&gt;" style="shape=note;whiteSpace=wrap;html=1;backgroundOutline=1;darkOpacity=0.05;fillColor=#e8c987;strokeColor=#000000;size=14;align=left;fillStyle=auto;gradientColor=#e8ebbc;" parent="WIyWlLk6GJQsqaUBKTNV-1" vertex="1">
          <mxGeometry x="5" y="880" width="120" height="30" as="geometry" />
        </mxCell>
        <mxCell id="llq4M6hsSdFKrIHtVXSO-15" style="edgeStyle=orthogonalEdgeStyle;rounded=0;orthogonalLoop=1;jettySize=auto;html=1;endArrow=oval;endFill=1;exitX=0.5;exitY=1;exitDx=0;exitDy=0;exitPerimeter=0;" parent="WIyWlLk6GJQsqaUBKTNV-1" edge="1" source="llq4M6hsSdFKrIHtVXSO-14">
          <mxGeometry relative="1" as="geometry">
            <mxPoint x="79" y="900" as="sourcePoint" />
            <mxPoint x="100" y="921" as="targetPoint" />
            <Array as="points">
              <mxPoint x="79" y="910" />
              <mxPoint x="79" y="920" />
              <mxPoint x="100" y="920" />
            </Array>
          </mxGeometry>
        </mxCell>
        <mxCell id="llq4M6hsSdFKrIHtVXSO-16" style="edgeStyle=orthogonalEdgeStyle;rounded=0;orthogonalLoop=1;jettySize=auto;html=1;entryX=0;entryY=0.75;entryDx=0;entryDy=0;endArrow=oval;endFill=1;" parent="WIyWlLk6GJQsqaUBKTNV-1" edge="1">
          <mxGeometry relative="1" as="geometry">
            <mxPoint x="90" y="970" as="sourcePoint" />
            <mxPoint x="100" y="938" as="targetPoint" />
            <Array as="points">
              <mxPoint x="90" y="958" />
              <mxPoint x="100" y="958" />
            </Array>
          </mxGeometry>
        </mxCell>
        <mxCell id="llq4M6hsSdFKrIHtVXSO-20" style="edgeStyle=orthogonalEdgeStyle;rounded=0;orthogonalLoop=1;jettySize=auto;html=1;exitX=0.999;exitY=0.606;exitDx=0;exitDy=0;exitPerimeter=0;endArrow=oval;endFill=1;" parent="WIyWlLk6GJQsqaUBKTNV-1" source="llq4M6hsSdFKrIHtVXSO-17" target="IUOXqDqNGWJRMbw2lu2S-2" edge="1">
          <mxGeometry relative="1" as="geometry">
            <mxPoint x="490" y="640" as="targetPoint" />
            <Array as="points">
              <mxPoint x="490" y="638" />
            </Array>
          </mxGeometry>
        </mxCell>
        <mxCell id="llq4M6hsSdFKrIHtVXSO-17" value="&lt;div&gt;return alfa_igény&lt;/div&gt;" style="shape=note;whiteSpace=wrap;html=1;backgroundOutline=1;darkOpacity=0.05;fillColor=#e8c987;strokeColor=#000000;size=14;align=left;fillStyle=auto;gradientColor=#e8ebbc;" parent="WIyWlLk6GJQsqaUBKTNV-1" vertex="1">
          <mxGeometry x="380" y="630" width="110" height="30" as="geometry" />
        </mxCell>
        <mxCell id="llq4M6hsSdFKrIHtVXSO-19" style="edgeStyle=orthogonalEdgeStyle;rounded=0;orthogonalLoop=1;jettySize=auto;html=1;endArrow=oval;endFill=1;" parent="WIyWlLk6GJQsqaUBKTNV-1" source="llq4M6hsSdFKrIHtVXSO-18" target="IUOXqDqNGWJRMbw2lu2S-2" edge="1">
          <mxGeometry relative="1" as="geometry">
            <mxPoint x="510" y="660" as="targetPoint" />
            <Array as="points">
              <mxPoint x="510" y="690" />
            </Array>
          </mxGeometry>
        </mxCell>
        <mxCell id="llq4M6hsSdFKrIHtVXSO-18" value="&lt;div&gt;return delta_igény&lt;/div&gt;" style="shape=note;whiteSpace=wrap;html=1;backgroundOutline=1;darkOpacity=0.05;fillColor=#e8c987;strokeColor=#000000;size=14;align=left;fillStyle=auto;gradientColor=#e8ebbc;" parent="WIyWlLk6GJQsqaUBKTNV-1" vertex="1">
          <mxGeometry x="380" y="670" width="120" height="30" as="geometry" />
        </mxCell>
        <mxCell id="llq4M6hsSdFKrIHtVXSO-22" style="edgeStyle=orthogonalEdgeStyle;rounded=0;orthogonalLoop=1;jettySize=auto;html=1;entryX=-0.002;entryY=0.877;entryDx=0;entryDy=0;entryPerimeter=0;endArrow=oval;endFill=1;" parent="WIyWlLk6GJQsqaUBKTNV-1" source="llq4M6hsSdFKrIHtVXSO-21" target="IUOXqDqNGWJRMbw2lu2S-0" edge="1">
          <mxGeometry relative="1" as="geometry">
            <mxPoint x="280" y="440" as="targetPoint" />
            <Array as="points">
              <mxPoint x="260" y="310" />
              <mxPoint x="260" y="434" />
            </Array>
          </mxGeometry>
        </mxCell>
        <mxCell id="llq4M6hsSdFKrIHtVXSO-21" value="&lt;div&gt;i := 1&amp;nbsp;&lt;span style=&quot;background-color: initial;&quot;&gt;&amp;nbsp;&lt;/span&gt;&lt;/div&gt;&lt;div&gt;&lt;span style=&quot;background-color: initial;&quot;&gt;max = 0&lt;/span&gt;&lt;/div&gt;&lt;div&gt;ind := -1&lt;/div&gt;&lt;div&gt;&lt;div&gt;while i≤|növények| loop&lt;/div&gt;&lt;div&gt;&lt;span style=&quot;white-space: pre;&quot;&gt;&#x9;&lt;/span&gt;if növények[i].Él() then&lt;/div&gt;&lt;div&gt;&lt;span style=&quot;white-space: pre;&quot;&gt;&#x9;&lt;span style=&quot;white-space: pre;&quot;&gt;&#x9;&lt;/span&gt;i&lt;/span&gt;f növények[i]getTápMennyi() &amp;gt; max &lt;span style=&quot;white-space: pre;&quot;&gt;&#x9;&lt;/span&gt;&lt;span style=&quot;white-space: pre;&quot;&gt;&#x9;&lt;/span&gt;then&lt;/div&gt;&lt;div&gt;&lt;span style=&quot;white-space: pre;&quot;&gt;&#x9;&lt;/span&gt;&lt;span style=&quot;white-space: pre;&quot;&gt;&#x9;&amp;nbsp;&lt;/span&gt;&amp;nbsp; max := növények[i]&lt;span style=&quot;background-color: initial;&quot;&gt;getTápMennyi()&amp;nbsp;&lt;/span&gt;&lt;br&gt;&lt;/div&gt;&lt;div&gt;&lt;span style=&quot;white-space: pre;&quot;&gt;&#x9;&lt;/span&gt;&lt;span style=&quot;white-space: pre;&quot;&gt;&#x9;&lt;/span&gt;&amp;nbsp; &amp;nbsp;ind := i&lt;br&gt;&lt;/div&gt;&lt;div&gt;&lt;span style=&quot;white-space: pre;&quot;&gt;&#x9;&lt;span style=&quot;white-space: pre;&quot;&gt;&#x9;&lt;/span&gt;&lt;/span&gt;endif&lt;/div&gt;&lt;div&gt;&lt;span style=&quot;white-space: pre;&quot;&gt;&#x9;&lt;/span&gt;i := i + 1&lt;/div&gt;&lt;div&gt;endloop&lt;/div&gt;&lt;/div&gt;&lt;div&gt;if ind = -1 then&lt;/div&gt;&lt;div&gt;&amp;nbsp;&lt;span style=&quot;white-space: pre;&quot;&gt;&#x9;&lt;/span&gt;return &quot;minden növény elpusztult&quot;&lt;/div&gt;&lt;div&gt;else return növények[ind].getNév()&lt;/div&gt;&lt;div&gt;endif&lt;/div&gt;" style="shape=note;whiteSpace=wrap;html=1;backgroundOutline=1;darkOpacity=0.05;fillColor=#e8c987;strokeColor=#000000;size=14;align=left;fillStyle=auto;gradientColor=#e8ebbc;" parent="WIyWlLk6GJQsqaUBKTNV-1" vertex="1">
          <mxGeometry x="10" y="120" width="270" height="245" as="geometry" />
        </mxCell>
        <mxCell id="lytWnD0UrwX1Dr-QNOHe-1" value="&lt;font style=&quot;font-size: 12px;&quot;&gt;&lt;b&gt;return (&lt;/b&gt;&lt;span style=&quot;font-size: 12px;&quot;&gt;tápMennyi&amp;nbsp;&lt;/span&gt;&amp;lt; 10 &lt;b&gt;and&amp;nbsp; &amp;nbsp;&lt;span style=&quot;white-space: pre;&quot;&gt;&#x9;&lt;/span&gt;&amp;nbsp; &amp;nbsp;&amp;nbsp;&lt;/b&gt;&lt;span style=&quot;font-size: 12px;&quot;&gt;tápMennyi&amp;nbsp;&lt;/span&gt;&amp;gt; 0&lt;b&gt;)&lt;/b&gt;&lt;/font&gt;" style="shape=note;whiteSpace=wrap;html=1;backgroundOutline=1;darkOpacity=0.05;fillColor=#e8c987;strokeColor=#000000;size=14;align=left;fillStyle=auto;gradientColor=#e8ebbc;" vertex="1" parent="WIyWlLk6GJQsqaUBKTNV-1">
          <mxGeometry x="385" y="910" width="185" height="40" as="geometry" />
        </mxCell>
        <mxCell id="lytWnD0UrwX1Dr-QNOHe-2" value="&lt;font style=&quot;font-size: 10px;&quot;&gt;&lt;b&gt;return&lt;/b&gt;&lt;b&gt;&amp;nbsp;&lt;/b&gt;&lt;span style=&quot;font-size: 12px;&quot;&gt;tápMennyi&amp;nbsp;&lt;/span&gt;&lt;/font&gt;" style="shape=note;whiteSpace=wrap;html=1;backgroundOutline=1;darkOpacity=0.05;fillColor=#e8c987;strokeColor=#000000;size=14;align=left;fillStyle=auto;gradientColor=#e8ebbc;" vertex="1" parent="WIyWlLk6GJQsqaUBKTNV-1">
          <mxGeometry x="60" y="670" width="110" height="30" as="geometry" />
        </mxCell>
        <mxCell id="lytWnD0UrwX1Dr-QNOHe-3" style="edgeStyle=orthogonalEdgeStyle;rounded=0;orthogonalLoop=1;jettySize=auto;html=1;entryX=-0.02;entryY=0.879;entryDx=0;entryDy=0;entryPerimeter=0;endArrow=oval;endFill=1;" edge="1" parent="WIyWlLk6GJQsqaUBKTNV-1" source="lytWnD0UrwX1Dr-QNOHe-2" target="IUOXqDqNGWJRMbw2lu2S-3">
          <mxGeometry relative="1" as="geometry">
            <Array as="points">
              <mxPoint x="180" y="690" />
              <mxPoint x="180" y="690" />
            </Array>
          </mxGeometry>
        </mxCell>
        <mxCell id="lytWnD0UrwX1Dr-QNOHe-4" value="&lt;font style=&quot;font-size: 10px;&quot;&gt;&lt;b&gt;return&lt;/b&gt;&lt;b&gt;&amp;nbsp;&lt;/b&gt;&lt;span style=&quot;font-size: 12px;&quot;&gt;név&lt;/span&gt;&lt;/font&gt;" style="shape=note;whiteSpace=wrap;html=1;backgroundOutline=1;darkOpacity=0.05;fillColor=#e8c987;strokeColor=#000000;size=14;align=left;fillStyle=auto;gradientColor=#e8ebbc;" vertex="1" parent="WIyWlLk6GJQsqaUBKTNV-1">
          <mxGeometry x="47.5" y="630" width="110" height="30" as="geometry" />
        </mxCell>
        <mxCell id="lytWnD0UrwX1Dr-QNOHe-5" style="edgeStyle=orthogonalEdgeStyle;rounded=0;orthogonalLoop=1;jettySize=auto;html=1;entryX=0;entryY=0.791;entryDx=0;entryDy=0;entryPerimeter=0;endArrow=oval;endFill=1;" edge="1" parent="WIyWlLk6GJQsqaUBKTNV-1" source="lytWnD0UrwX1Dr-QNOHe-4" target="IUOXqDqNGWJRMbw2lu2S-3">
          <mxGeometry relative="1" as="geometry" />
        </mxCell>
      </root>
    </mxGraphModel>
  </diagram>
</mxfile>
